<svg width="136" height="160" viewBox="0 0 136 160" fill="none" xmlns="http://www.w3.org/2000/svg">
<path fill-rule="evenodd" clip-rule="evenodd" d="M105.5 4.14984C73.8203 14.7959 51 44.7329 51 80C51 115.267 73.8203 145.204 105.5 155.85C97.4902 158.542 88.916 160 80 160C35.8164 160 0 124.183 0 80C0 35.8172 35.8164 0 80 0C88.916 0 97.4902 1.45844 105.5 4.14984Z" fill="#7E7E7E"/>
<path d="M126 28L128.245 34.9098H135.511L129.633 39.1803L131.878 46.0902L126 41.8197L120.122 46.0902L122.367 39.1803L116.489 34.9098H123.755L126 28Z" fill="#7E7E7E"/>
<path d="M93.5 63L96.3064 71.6373H105.388L98.0409 76.9754L100.847 85.6127L93.5 80.2746L86.1527 85.6127L88.9591 76.9754L81.6118 71.6373H90.6936L93.5 63Z" fill="#7E7E7E"/>
<path d="M121 104L124.368 114.365H135.266L126.449 120.771L129.817 131.135L121 124.729L112.183 131.135L115.551 120.771L106.734 114.365H117.632L121 104Z" fill="#7E7E7E"/>
</svg>
