<svg width="187" height="185" viewBox="0 0 187 185" fill="none" xmlns="http://www.w3.org/2000/svg">
<circle cx="93.5004" cy="92.3598" r="45.6098" fill="#EEEEEE"/>
<rect x="91.2188" width="4.56098" height="34.2073" rx="2.28049" fill="white"/>
<rect x="91.2188" y="150.512" width="4.56098" height="34.2073" rx="2.28049" fill="white"/>
<rect x="152.793" y="94.6403" width="4.56098" height="34.2073" rx="2.28049" transform="rotate(-90 152.793 94.6403)" fill="white"/>
<rect x="136.26" y="136.634" width="4.56098" height="34.2073" rx="2.28049" transform="rotate(-45 136.26 136.634)" fill="white"/>
<rect x="26.2266" y="30.0208" width="4.56098" height="34.2073" rx="2.28049" transform="rotate(-45 26.2266 30.0208)" fill="white"/>
<rect y="94.6403" width="4.56098" height="34.2073" rx="2.28049" transform="rotate(-90 0 94.6403)" fill="white"/>
<rect x="28.8809" y="160.822" width="4.56098" height="34.2073" rx="2.28049" transform="rotate(-135 28.8809 160.822)" fill="white"/>
<rect x="138.914" y="52.4987" width="4.56098" height="34.2073" rx="2.28049" transform="rotate(-135 138.914 52.4987)" fill="white"/>
</svg>
